# xmcd CD database file
#
# Track frame offsets:
#	150
#	14284
#	30345
#	44682
#	61925
#	77997
#	96615
#	108800
#	124107
#	138645
#	156582
#	172820
#	188407
#	204477
#	221520
#	236310
#	252805
#	266167
#	281730
#	296275
#	313620
#	314262
#	314812
#	315650
#	316402
#	317295
#	318285
#	319285
#	320035
#	320805
#	321875
#	322865
#	324020
#	324935
#	325797
#	326737
#	327627
#	328702
#	329727
#	330627
#	331410
#
# Disc length: 4426 seconds
#
# Revision: 0
# Processed by: cddbd v1.5.2PL0 Copyright (c) Steve Scherf et al.
# Submitted via: CDex 1.70beta2
#
DISCID=69114829
DTITLE=Jones Country - Jones Country Recurrent CHC-1174
DYEAR=0000
DGENRE=Country
TTITLE0=Reba McEntire/Fear Of Being Alone
TTITLE1=Daryle Singletary/Amen Kind Of Love [LP version]
TTITLE2=Rick Trevino/Running Out Of Reasons To Run
TTITLE3=LeAnn Rimes/One Way Ticket (Because I Can)
TTITLE4=David Kersh/Goodnight Sweetheart
TTITLE5=Faith Hill/I Can't Do That Anymore [LP version]
TTITLE6=Alan Jackson/Little Bitty
TTITLE7=Tracy Lawrence/Is That A Tear
TTITLE8=Trisha Yearwood/Everybody Knows
TTITLE9=John Michael Montgomery/Friends
TTITLE10=Vince Gill/Pretty Little Adriana
TTITLE11=Toby Keith/Me Too [radio edit]
TTITLE12=Travis Tritt/Where Corn Don't Grow
TTITLE13=John Berry/She's Taken A Shine
TTITLE14=Diamond Rio/Holdin'
TTITLE15=Brooks and Dunn/A Man This Lonely
TTITLE16=Patty Loveless/She Drew A Broken Heart
TTITLE17=Deana Carter/We Danced Anyway
TTITLE18=Terri Clark/Emotional Girl
TTITLE19=Trace Adkins/(This Ain't) No Thinkin' Thing
TTITLE20=Production Track 21
TTITLE21=Production Track 22
TTITLE22=Production Track 23
TTITLE23=Production Track 24
TTITLE24=Production Track 25
TTITLE25=Production Track 26
TTITLE26=Production Track 27
TTITLE27=Production Track 28
TTITLE28=Production Track 29
TTITLE29=Production Track 30
TTITLE30=Production Track 31
TTITLE31=Production Track 32
TTITLE32=Production Track 33
TTITLE33=Production Track 34
TTITLE34=Production Track 35
TTITLE35=Production Track 36
TTITLE36=Production Track 37
TTITLE37=Production Track 38
TTITLE38=Production Track 39
TTITLE39=Production Track 40
TTITLE40=Production Track 41
EXTD=YEAR: 0000
EXTT0=
EXTT1=
EXTT2=
EXTT3=
EXTT4=
EXTT5=
EXTT6=
EXTT7=
EXTT8=
EXTT9=
EXTT10=
EXTT11=
EXTT12=
EXTT13=
EXTT14=
EXTT15=
EXTT16=
EXTT17=
EXTT18=
EXTT19=
EXTT20=
EXTT21=
EXTT22=
EXTT23=
EXTT24=
EXTT25=
EXTT26=
EXTT27=
EXTT28=
EXTT29=
EXTT30=
EXTT31=
EXTT32=
EXTT33=
EXTT34=
EXTT35=
EXTT36=
EXTT37=
EXTT38=
EXTT39=
EXTT40=
PLAYORDER=
